HIERARCHY
ROOT RootJoint
{
    OFFSET   0.000000   0.000000   0.000000
    CHANNELS 6 Xposition Yposition Zposition Xrotation Yrotation Zrotation
    JOINT pelvis_lowerback
    {
        OFFSET   0.000000   0.093605   0.000000
        CHANNELS 3 Xrotation Yrotation Zrotation
        JOINT lowerback_torso
        {
            OFFSET   0.000000   0.100000   0.000000
            CHANNELS 3 Xrotation Yrotation Zrotation
            JOINT torso_head
            {
                OFFSET   0.000000   0.282350   0.000000
                CHANNELS 3 Xrotation Yrotation Zrotation
                End Site
                {
                    OFFSET   0.000000   0.192650   0.000000
                }
            }
            JOINT rTorso_Clavicle
            {
                OFFSET  -0.001000   0.157500   0.000000
                CHANNELS 3 Xrotation Yrotation Zrotation
                JOINT rShoulder
                {
                    OFFSET  -0.117647   0.000000   0.000000
                    CHANNELS 3 Xrotation Yrotation Zrotation
                    JOINT rElbow
                    {
                        OFFSET  -0.245000   0.000000   0.000000
                        CHANNELS 3 Xrotation Yrotation Zrotation
                        JOINT rWrist
                        {
                            OFFSET  -0.240000   0.000000   0.000000
                            CHANNELS 3 Xrotation Yrotation Zrotation
                            End Site
                            {
                                OFFSET  -0.116353  -0.002500   0.000000
                            }
                        }
                    }
                }
            }
            JOINT lTorso_Clavicle
            {
                OFFSET   0.001000   0.157500   0.000000
                CHANNELS 3 Xrotation Yrotation Zrotation
                JOINT lShoulder
                {
                    OFFSET   0.117647   0.000000   0.000000
                    CHANNELS 3 Xrotation Yrotation Zrotation
                    JOINT lElbow
                    {
                        OFFSET   0.245000   0.000000   0.000000
                        CHANNELS 3 Xrotation Yrotation Zrotation
                        JOINT lWrist
                        {
                            OFFSET   0.240000   0.000000   0.000000
                            CHANNELS 3 Xrotation Yrotation Zrotation
                            End Site
                            {
                                OFFSET   0.116353  -0.002500   0.000000
                            }
                        }
                    }
                }
            }
        }
    }
    JOINT rHip
    {
        OFFSET  -0.100000  -0.051395   0.000000
        CHANNELS 3 Xrotation Yrotation Zrotation
        JOINT rKnee
        {
            OFFSET   0.000000  -0.410000   0.000000
            CHANNELS 3 Xrotation Yrotation Zrotation
            JOINT rAnkle
            {
                OFFSET   0.000000  -0.390000   0.000000
                CHANNELS 3 Xrotation Yrotation Zrotation
                JOINT rToeJoint
                {
                    OFFSET   0.000000  -0.050000   0.130000
                    CHANNELS 3 Xrotation Yrotation Zrotation
                    End Site
                    {
                        OFFSET  -0.010000   0.002000   0.060000
                    }
                }
            }
        }
    }
    JOINT lHip
    {
        OFFSET   0.100000  -0.051395   0.000000
        CHANNELS 3 Xrotation Yrotation Zrotation
        JOINT lKnee
        {
            OFFSET   0.000000  -0.410000   0.000000
            CHANNELS 3 Xrotation Yrotation Zrotation
            JOINT lAnkle
            {
                OFFSET   0.000000  -0.390000   0.000000
                CHANNELS 3 Xrotation Yrotation Zrotation
                JOINT lToeJoint
                {
                    OFFSET   0.000000  -0.050000   0.130000
                    CHANNELS 3 Xrotation Yrotation Zrotation
                    End Site
                    {
                        OFFSET   0.010000   0.002000   0.060000
                    }
                }
            }
        }
    }
}
MOTION
Frames: 10
Frame Time:   0.008333
 -2.288573   0.870749   4.852516   5.749062  25.655549  -1.027636  15.087770  -7.149591   1.528104   5.683698  -4.842241   2.677355  -3.208928   0.783860  -2.882191   6.431890  -3.398718   7.814272   6.708618  -6.450564  36.826632   0.002513  12.950704  -0.012975   2.864210   2.959627  -3.342761   2.069886  -5.307600  -4.647676   0.505098  -9.212184 -35.570916  -0.004431 -45.484303   0.007776   3.623783  -5.908544   6.344626 -31.474084  -0.588158 -12.259431  32.601009  -0.000434   0.000687  -7.626436  -5.454773   3.469280   0.393890  -0.000915   0.000208   6.943582  -4.893240  11.764795  23.559899  -0.005687  -0.006899 -14.886660   1.370210  -1.564976 -11.826003   0.000051  -0.012953
 -2.288413   0.872069   4.860041   5.903310  25.394339  -1.089003  15.115739  -7.196864   1.682390   5.770708  -4.910542   2.740605  -3.227509   0.843176  -2.934074   6.332573  -3.662757   7.746858   6.441544  -6.767063  36.237107   0.001979  12.964074  -0.010305   2.854984   2.665996  -3.415542   1.919728  -5.357771  -4.708196   0.495857  -9.253669 -35.133428  -0.003678 -45.558824   0.006600   3.663833  -6.025661   6.432102 -31.224642  -0.734848 -12.013300  32.608165  -0.000363   0.000539  -7.722565  -5.496247   3.252305   0.600988  -0.000673  -0.000321   6.531176  -4.868947  11.869906  24.852313  -0.007170  -0.006423 -14.100069   1.333701  -1.515553 -10.586190  -0.002877  -0.012363
 -2.288166   0.873380   4.867448   6.008351  25.158288  -1.121280  15.171424  -7.209518   1.812761   5.882346  -4.960214   2.796170  -3.227203   0.897583  -2.977093   6.214954  -3.885605   7.662333   6.167111  -7.035513  35.661481   0.001468  12.996548  -0.008085   2.847310   2.477204  -3.541294   1.769000  -5.417871  -4.758769   0.479608  -9.297091 -34.713907  -0.003058 -45.623441   0.005572   3.700486  -6.109022   6.534072 -30.909261  -0.867640 -11.787042  32.591658  -0.000258   0.000452  -7.830509  -5.530149   3.036781   0.782107  -0.000471  -0.000622   6.062100  -4.838777  11.945782  26.134110  -0.007920  -0.005516 -13.358643   1.305142  -1.467874  -9.426365  -0.004873  -0.011049
 -2.287825   0.874628   4.874813   6.085521  24.933589  -1.137114  15.230800  -7.193604   1.923822   5.995780  -4.982872   2.835747  -3.220991   0.948443  -3.017365   6.092256  -4.074778   7.565590   5.897858  -7.270063  35.108733   0.001026  13.034477  -0.006305   2.842642   2.346535  -3.692476   1.629035  -5.472531  -4.803048   0.464966  -9.337046 -34.320361  -0.002556 -45.683448   0.004686   3.735513  -6.183015   6.634907 -30.561440  -0.995258 -11.577419  32.571862  -0.000170   0.000386  -7.938284  -5.559606   2.830533   0.946074  -0.000313  -0.000812   5.570137  -4.817419  12.000276  27.324862  -0.008149  -0.004668 -12.666593   1.279342  -1.423105  -8.363116  -0.006059  -0.009694
 -2.287396   0.875784   4.882170   6.140031  24.717677  -1.142673  15.287305  -7.153540   2.017521   6.103636  -4.981042   2.860508  -3.213212   0.996207  -3.055479   5.968743  -4.237273   7.461589   5.637185  -7.477076  34.581226   0.000654  13.074830  -0.004889   2.839951   2.250911  -3.857470   1.502569  -5.517587  -4.844042   0.454587  -9.370771 -33.953290  -0.002148 -45.738244   0.003917   3.768629  -6.248439   6.730175 -30.191624  -1.121297 -11.380558  32.560105  -0.000116   0.000323  -8.041604  -5.585840   2.635542   1.095416  -0.000193  -0.000928   5.066295  -4.805463  12.041305  28.421312  -0.008044  -0.003942 -12.021323   1.255785  -1.381094  -7.389497  -0.006667  -0.008432
 -2.286879   0.876831   4.889541   6.173809  24.509135  -1.141248  15.338078  -7.093135   2.095222   6.203639  -4.958108   2.872236  -3.205376   1.041114  -3.091614   5.846449  -4.377599   7.354002   5.386482  -7.660479  34.079925   0.000347  13.116284  -0.003767   2.838698   2.180283  -4.030365   1.389926  -5.552131  -4.883371   0.449170  -9.397456 -33.611840  -0.001815 -45.787553   0.003252   3.799443  -6.302927   6.818518 -29.804489  -1.246840 -11.193738  32.562841  -0.000097   0.000255  -8.138375  -5.609342   2.452169   1.231794  -0.000103  -0.000992   4.557591  -4.801877  12.073358  29.430168  -0.007730  -0.003343 -11.419706   1.234263  -1.341669  -6.497989  -0.006872  -0.007304
 -2.286275   0.877761   4.896934   6.188602  24.306669  -1.135203  15.381545  -7.015745   2.158344   6.294905  -4.917222   2.872644  -3.198116   1.083350  -3.125932   5.726478  -4.498917   7.245436   5.146321  -7.823125  33.605020   0.000098  13.158130  -0.002878   2.838632   2.129497  -4.207358   1.290522  -5.576460  -4.921932   0.448637  -9.417186 -33.294773  -0.001541 -45.831495   0.002678   3.827790  -6.345417   6.899552 -29.403128  -1.372171 -11.015079  32.583391  -0.000111   0.000178  -8.227614  -5.630414   2.280210   1.356558  -0.000037  -0.001020   4.048941  -4.805515  12.098869  30.358762  -0.007290  -0.002862 -10.858759   1.214602  -1.304679  -5.681662  -0.006797  -0.006321
 -2.285636   0.879194   4.903661   6.321341  24.154096  -1.187191  15.444354  -6.895943   2.250110   6.333457  -4.948764   2.900429  -3.142955   1.099367  -3.125847   5.617291  -4.597911   7.206577   4.852504  -7.844569  33.015978  -0.002146  13.643913  -0.001270   2.886805   1.801412  -4.412857   1.181489  -5.639491  -5.018403   0.487587  -9.376086 -32.975493  -0.001078 -45.649900   0.001695   3.910858  -6.556288   7.053421 -28.991093  -1.424915 -10.819546  32.407237   0.000121   0.000155  -8.649613  -5.606287   2.158751   1.187353  -0.000003  -0.000812   3.080268  -4.659947  12.100113  31.627855  -0.005695  -0.000027 -10.578895   1.294848  -1.283189  -4.958607  -0.006036  -0.003213
 -2.284857   0.880806   4.910127   6.437185  24.003867  -1.203833  15.530177  -6.741461   2.315134   6.389224  -4.943243   2.914834  -3.080046   1.110226  -3.119574   5.479906  -4.644499   7.155080   4.548015  -7.816241  32.452970  -0.003983  14.129935  -0.000393   2.946440   1.665796  -4.645546   1.091780  -5.696837  -5.113677   0.534271  -9.328545 -32.681626  -0.000775 -45.465473   0.000936   3.984309  -6.683097   7.168549 -28.515942  -1.463164 -10.660421  32.107297   0.000417   0.000142  -8.994622  -5.584816   2.014120   1.060096  -0.000024  -0.000647   2.044889  -4.519485  12.036436  32.825945  -0.003937   0.002010 -10.319868   1.372013  -1.263953  -4.319533  -0.005036  -0.000953
 -2.283967   0.882436   4.916468   6.530410  23.863221  -1.196050  15.621551  -6.554909   2.361594   6.454461  -4.897369   2.913364  -3.015152   1.119712  -3.113162   5.333837  -4.658783   7.092615   4.249595  -7.764306  31.918172  -0.005393  14.595785  -0.000024   3.009892   1.622150  -4.885445   1.019162  -5.739130  -5.204235   0.586311  -9.276099 -32.411370  -0.000531 -45.289203   0.000459   4.051779  -6.774340   7.250524 -28.004197  -1.498121 -10.529286  31.766484   0.000663   0.000140  -9.310859  -5.562495   1.866859   0.962683  -0.000049  -0.000515   0.995751  -4.395932  11.941424  33.922583  -0.002370   0.003308 -10.079516   1.443658  -1.246730  -3.739003  -0.004042   0.000613
